<svg width="44" height="44" viewBox="0 0 44 44" fill="none" xmlns="http://www.w3.org/2000/svg">
<path fill-rule="evenodd" clip-rule="evenodd" d="M44 22C44 23.4899 43.8485 24.9777 43.551 26.428C43.2609 27.8438 42.8312 29.2339 42.2683 30.5626C41.7183 31.8679 41.0362 33.1257 40.239 34.2987C39.4538 35.4644 38.5492 36.5579 37.5555 37.5547C36.5596 38.5473 35.4639 39.4506 34.3005 40.2403C33.1252 41.033 31.8673 41.7151 30.5631 42.2684C29.2342 42.8291 27.843 43.2588 26.4303 43.5488C24.9801 43.8475 23.489 44 21.999 44C20.5079 44 19.0168 43.8475 17.5687 43.5488C16.1539 43.2588 14.7627 42.8291 13.4349 42.2684C12.1308 41.7151 10.8717 41.033 9.69644 40.2403C8.53301 39.4507 7.43725 38.5473 6.44354 37.5547C5.4488 36.5579 4.54421 35.4644 3.75785 34.2987C2.96503 33.1257 2.28175 31.8678 1.72961 30.5626C1.16662 29.2339 0.735898 27.8438 0.444759 26.428C0.150435 24.9777 0 23.4899 0 22C0 20.509 0.150348 19.018 0.444845 17.5709C0.735984 16.1551 1.16671 14.763 1.7297 13.4363C2.28183 12.1301 2.96512 10.8712 3.75794 9.69806C4.54429 8.5315 5.44888 7.44003 6.44363 6.44207C7.43734 5.44944 8.53309 4.54826 9.69653 3.7598C10.8718 2.96375 12.1309 2.28171 13.435 1.72736C14.7628 1.16544 16.1539 0.734738 17.5688 0.446888C19.0169 0.150426 20.508 0 21.9991 0C23.4891 0 24.9801 0.150426 26.4304 0.446888C27.8431 0.734824 29.2342 1.16552 30.5632 1.72736C31.8673 2.28162 33.1253 2.96375 34.3005 3.7598C35.464 4.54826 36.5598 5.44944 37.5556 6.44207C38.5493 7.44003 39.4539 8.5315 40.2391 9.69806C41.0362 10.8712 41.7183 12.1302 42.2683 13.4363C42.8312 14.763 43.2609 16.1551 43.551 17.5709C43.8485 19.018 44 20.509 44 22ZM13.9827 5.00692C8.74339 7.4809 4.83304 12.3084 3.61372 18.1264C4.10902 18.1307 11.9383 18.2295 20.959 15.8329C17.7072 10.0557 14.233 5.34109 13.9827 5.00692ZM22.5156 18.7259C12.8418 21.6218 3.55894 21.4135 3.22596 21.4006C3.22053 21.6026 3.21089 21.798 3.21089 22C3.21089 26.8264 5.03177 31.2264 8.0247 34.5533C8.01825 34.5436 13.1598 25.4225 23.2988 22.144C23.5437 22.0624 23.7929 21.9893 24.04 21.9184C23.5685 20.8507 23.0538 19.7807 22.5156 18.7259ZM34.4068 7.89982C31.0991 4.98326 26.7558 3.21413 21.9989 3.21413C20.4724 3.21413 18.9909 3.39891 17.5718 3.74049C17.8533 4.11867 21.3823 8.80005 24.5954 14.6996C31.6846 12.042 34.3606 7.96853 34.4068 7.89982ZM25.3207 25.0315C25.2788 25.0453 25.237 25.0573 25.1961 25.0723C14.1108 28.9366 10.4908 36.7242 10.4516 36.8092C13.6412 39.2895 17.6418 40.7859 21.9991 40.7859C24.6009 40.7859 27.0792 40.2562 29.3341 39.2971C29.0559 37.6557 27.9644 31.9022 25.3207 25.0315ZM32.4978 37.5805C36.7165 34.7338 39.7126 30.2136 40.5484 24.9776C40.1616 24.8531 34.9052 23.1891 28.8409 24.1613C31.3053 30.9332 32.3066 36.4483 32.4978 37.5805ZM26.0416 17.499C26.4776 18.395 26.8999 19.3068 27.2898 20.2232C27.4284 20.552 27.5638 20.8743 27.6959 21.1965C34.1501 20.3843 40.5088 21.7507 40.7806 21.8065C40.7376 17.3529 39.1444 13.2655 36.5083 10.0655C36.4728 10.1158 33.4594 14.4697 26.0416 17.499Z" fill="#7FA66F"/>
</svg>
