<svg width="44" height="44" viewBox="0 0 44 44" fill="none" xmlns="http://www.w3.org/2000/svg">
<path fill-rule="evenodd" clip-rule="evenodd" d="M22.0021 0C16.0272 0 15.2773 0.026125 12.9306 0.132917C10.5885 0.240167 8.98984 0.610958 7.591 1.155C6.14402 1.71692 4.91659 2.46858 3.69375 3.69188C2.46998 4.91471 1.71831 6.14212 1.15455 7.58862C0.609131 8.98792 0.237877 10.587 0.13246 12.9282C0.0275003 15.2749 0 16.0252 0 22C0 27.9748 0.0265836 28.7224 0.132918 31.069C0.240627 33.4111 0.611423 35.0098 1.15501 36.4086C1.71739 37.8556 2.46907 39.083 3.69237 40.3058C4.91476 41.5296 6.14219 42.2831 7.58824 42.845C8.98801 43.389 10.5872 43.7598 12.9288 43.8671C15.2755 43.9739 16.0249 44 21.9993 44C27.9747 44 28.7222 43.9739 31.0689 43.8671C33.411 43.7598 35.0115 43.389 36.4113 42.845C37.8578 42.2831 39.0834 41.5296 40.3058 40.3058C41.5296 39.083 42.2812 37.8556 42.845 36.4091C43.3858 35.0098 43.7571 33.4107 43.8671 31.0695C43.9725 28.7228 44 27.9748 44 22C44 16.0252 43.9725 15.2753 43.8671 12.9287C43.7571 10.5866 43.3858 8.98792 42.845 7.58908C42.2812 6.14213 41.5296 4.91471 40.3058 3.69188C39.082 2.46813 37.8583 1.71646 36.4099 1.155C35.0074 0.610958 33.4078 0.240167 31.0657 0.132917C28.719 0.026125 27.9719 0 21.9952 0H22.0021ZM20.0284 3.96452C20.6141 3.9636 21.2677 3.96452 22.002 3.96452C27.876 3.96452 28.5722 3.98561 30.8919 4.09102C33.0369 4.18911 34.2011 4.54752 34.9766 4.84865C36.0033 5.2474 36.7352 5.72406 37.5048 6.49406C38.2748 7.26406 38.7515 7.9974 39.1511 9.02406C39.4523 9.79865 39.8111 10.9628 39.9088 13.1078C40.0142 15.427 40.0371 16.1236 40.0371 21.9949C40.0371 27.8661 40.0142 28.5628 39.9088 30.882C39.8107 33.027 39.4523 34.1912 39.1511 34.9657C38.7524 35.9924 38.2748 36.7234 37.5048 37.493C36.7348 38.263 36.0037 38.7397 34.9766 39.1384C34.202 39.4409 33.0369 39.7984 30.8919 39.8965C28.5727 40.0019 27.876 40.0248 22.002 40.0248C16.1274 40.0248 15.4312 40.0019 13.112 39.8965C10.967 39.7975 9.80284 39.4391 9.02687 39.1379C8.0002 38.7392 7.26686 38.2625 6.49685 37.4925C5.72684 36.7225 5.25017 35.991 4.8505 34.9639C4.54937 34.1893 4.19049 33.0252 4.09286 30.8802C3.98745 28.561 3.96636 27.8643 3.96636 21.9894C3.96636 16.1145 3.98745 15.4215 4.09286 13.1023C4.19095 10.9573 4.54937 9.79315 4.8505 9.01765C5.24925 7.99098 5.72684 7.25765 6.49685 6.48765C7.26686 5.71765 8.0002 5.24098 9.02687 4.84131C9.80238 4.53881 10.967 4.18131 13.112 4.08277C15.1416 3.9911 15.9281 3.9636 20.0284 3.95902V3.96452ZM33.7455 7.61745C32.288 7.61745 31.1055 8.79857 31.1055 10.2565C31.1055 11.714 32.288 12.8965 33.7455 12.8965C35.203 12.8965 36.3855 11.714 36.3855 10.2565C36.3855 8.79903 35.203 7.61745 33.7455 7.61745ZM22.0021 10.702C15.7627 10.702 10.7041 15.7606 10.7041 21.9999C10.7041 28.2392 15.7627 33.2956 22.0021 33.2956C28.2415 33.2956 33.2983 28.2392 33.2983 21.9999C33.2983 15.7606 28.2415 10.702 22.0021 10.702ZM22.002 14.6666C26.0519 14.6666 29.3354 17.9496 29.3354 21.9999C29.3354 26.0498 26.0519 29.3333 22.002 29.3333C17.9517 29.3333 14.6686 26.0498 14.6686 21.9999C14.6686 17.9496 17.9517 14.6666 22.002 14.6666Z" fill="#7FA66F"/>
</svg>
