<svg width="39" height="40" viewBox="0 0 39 40" fill="none" xmlns="http://www.w3.org/2000/svg">
<path opacity="0.1" fill-rule="evenodd" clip-rule="evenodd" d="M0 20C0 8.95431 8.73045 0 19.5 0C30.2696 0 39 8.95431 39 20C39 31.0457 30.2696 40 19.5 40C8.73045 40 0 31.0457 0 20Z" fill="#263238"/>
<path fill-rule="evenodd" clip-rule="evenodd" d="M19.5009 9.33325C16.6765 9.33325 16.322 9.34592 15.2126 9.3977C14.1055 9.4497 13.3497 9.62948 12.6884 9.89326C12.0044 10.1657 11.4242 10.5302 10.8461 11.1233C10.2676 11.7162 9.91227 12.3113 9.64576 13.0126C9.38793 13.6911 9.21243 14.4664 9.16259 15.6015C9.11298 16.7393 9.09998 17.1031 9.09998 20C9.09998 22.8969 9.11254 23.2594 9.16281 24.3972C9.21373 25.5328 9.38901 26.3079 9.64598 26.9861C9.91183 27.6877 10.2672 28.2828 10.8455 28.8757C11.4233 29.469 12.0036 29.8344 12.6871 30.1068C13.3489 30.3706 14.1048 30.5504 15.2118 30.6024C16.3211 30.6541 16.6754 30.6668 19.4997 30.6668C22.3244 30.6668 22.6778 30.6541 23.7871 30.6024C24.8943 30.5504 25.6509 30.3706 26.3126 30.1068C26.9964 29.8344 27.5758 29.469 28.1536 28.8757C28.7321 28.2828 29.0875 27.6877 29.354 26.9863C29.6096 26.3079 29.7851 25.5325 29.8371 24.3974C29.887 23.2596 29.9 22.8969 29.9 20C29.9 17.1031 29.887 16.7396 29.8371 15.6018C29.7851 14.4662 29.6096 13.6911 29.354 13.0128C29.0875 12.3113 28.7321 11.7162 28.1536 11.1233C27.5751 10.5299 26.9966 10.1655 26.3119 9.89326C25.6489 9.62948 24.8928 9.4497 23.7856 9.3977C22.6762 9.34592 22.3231 9.33325 19.4977 9.33325H19.5009ZM18.5679 11.2555C18.8448 11.255 19.1538 11.2555 19.5009 11.2555C22.2777 11.2555 22.6069 11.2657 23.7034 11.3168C24.7174 11.3644 25.2678 11.5381 25.6344 11.6841C26.1197 11.8775 26.4657 12.1086 26.8295 12.4819C27.1935 12.8553 27.4189 13.2108 27.6078 13.7086C27.7501 14.0842 27.9198 14.6486 27.9659 15.6886C28.0158 16.8131 28.0266 17.1509 28.0266 19.9976C28.0266 22.8443 28.0158 23.182 27.9659 24.3065C27.9196 25.3465 27.7501 25.911 27.6078 26.2865C27.4193 26.7843 27.1935 27.1387 26.8295 27.5119C26.4655 27.8852 26.1199 28.1163 25.6344 28.3096C25.2682 28.4563 24.7174 28.6296 23.7034 28.6772C22.6071 28.7283 22.2777 28.7394 19.5009 28.7394C16.7239 28.7394 16.3947 28.7283 15.2984 28.6772C14.2844 28.6292 13.734 28.4554 13.3672 28.3094C12.8819 28.1161 12.5352 27.885 12.1712 27.5116C11.8072 27.1383 11.5819 26.7836 11.3929 26.2856C11.2506 25.9101 11.0809 25.3456 11.0348 24.3056C10.985 23.1811 10.975 22.8434 10.975 19.9949C10.975 17.1464 10.985 16.8104 11.0348 15.686C11.0812 14.6459 11.2506 14.0815 11.3929 13.7055C11.5814 13.2077 11.8072 12.8521 12.1712 12.4788C12.5352 12.1055 12.8819 11.8744 13.3672 11.6806C13.7338 11.5339 14.2844 11.3606 15.2984 11.3128C16.2578 11.2684 16.6296 11.255 18.5679 11.2528V11.2555ZM25.0524 13.0266C24.3634 13.0266 23.8044 13.5993 23.8044 14.3062C23.8044 15.0128 24.3634 15.5862 25.0524 15.5862C25.7414 15.5862 26.3004 15.0128 26.3004 14.3062C26.3004 13.5995 25.7414 13.0266 25.0524 13.0266ZM19.501 14.5222C16.5515 14.5222 14.1601 16.9749 14.1601 20C14.1601 23.0251 16.5515 25.4767 19.501 25.4767C22.4505 25.4767 24.841 23.0251 24.841 20C24.841 16.9749 22.4505 14.5222 19.501 14.5222ZM19.5009 16.4444C21.4154 16.4444 22.9676 18.0362 22.9676 20C22.9676 21.9636 21.4154 23.5556 19.5009 23.5556C17.5862 23.5556 16.0342 21.9636 16.0342 20C16.0342 18.0362 17.5862 16.4444 19.5009 16.4444Z" fill="#263238"/>
</svg>
