<svg width="41" height="41" viewBox="0 0 41 41" fill="none" xmlns="http://www.w3.org/2000/svg">
<path opacity="0.1" fill-rule="evenodd" clip-rule="evenodd" d="M0 20.5C0 9.17816 9.17816 0 20.5 0C31.8218 0 41 9.17816 41 20.5C41 31.8218 31.8218 41 20.5 41C9.17816 41 0 31.8218 0 20.5Z" fill="#263238"/>
<path fill-rule="evenodd" clip-rule="evenodd" d="M31.4333 20.4848C31.4333 21.2242 31.358 21.9626 31.2102 22.6823C31.066 23.385 30.8525 24.0748 30.5727 24.7343C30.2994 25.382 29.9604 26.0063 29.5642 26.5884C29.174 27.1669 28.7244 27.7096 28.2306 28.2043C27.7357 28.6969 27.1911 29.1452 26.6129 29.5371C26.0289 29.9305 25.4037 30.269 24.7556 30.5436C24.0952 30.8219 23.4038 31.0351 22.7017 31.179C21.981 31.3273 21.24 31.403 20.4995 31.403C19.7585 31.403 19.0174 31.3273 18.2978 31.179C17.5947 31.0351 16.9033 30.8219 16.2434 30.5436C15.5953 30.269 14.9695 29.9305 14.3855 29.5371C13.8073 29.1452 13.2627 28.6969 12.7689 28.2043C12.2745 27.7096 11.825 27.1669 11.4342 26.5884C11.0402 26.0063 10.7006 25.382 10.4262 24.7343C10.1464 24.0748 9.93237 23.3849 9.78768 22.6823C9.64141 21.9626 9.56665 21.2242 9.56665 20.4848C9.56665 19.7449 9.64137 19.0049 9.78773 18.2868C9.93241 17.5841 10.1465 16.8932 10.4263 16.2348C10.7007 15.5866 11.0402 14.9618 11.4342 14.3796C11.825 13.8007 12.2746 13.259 12.7689 12.7637C13.2628 12.2711 13.8073 11.8239 14.3855 11.4326C14.9696 11.0375 15.5953 10.699 16.2434 10.4239C16.9033 10.145 17.5947 9.93129 18.2978 9.78843C19.0175 9.6413 19.7585 9.56665 20.4995 9.56665C21.24 9.56665 21.981 9.6413 22.7018 9.78843C23.4038 9.93133 24.0952 10.1451 24.7556 10.4239C25.4037 10.699 26.0289 11.0375 26.613 11.4326C27.1912 11.8239 27.7358 12.2711 28.2306 12.7637C28.7245 13.259 29.174 13.8007 29.5643 14.3796C29.9604 14.9618 30.2994 15.5866 30.5727 16.2348C30.8525 16.8932 31.066 17.5841 31.2102 18.2868C31.358 19.0049 31.4333 19.7449 31.4333 20.4848ZM16.5156 12.0515C13.9119 13.2793 11.9685 15.6751 11.3626 18.5624C11.6087 18.5645 15.4996 18.6136 19.9826 17.4242C18.3666 14.5571 16.64 12.2173 16.5156 12.0515ZM20.7562 18.8599C15.9486 20.2971 11.3353 20.1937 11.1699 20.1874C11.1672 20.2876 11.1624 20.3846 11.1624 20.4848C11.1624 22.8801 12.0673 25.0637 13.5547 26.7148C13.5515 26.7099 16.1067 22.1833 21.1454 20.5563C21.2671 20.5158 21.391 20.4795 21.5138 20.4443C21.2795 19.9144 21.0237 19.3834 20.7562 18.8599ZM26.6658 13.4872C25.0219 12.0397 22.8635 11.1618 20.4995 11.1618C19.7408 11.1618 19.0046 11.2535 18.2993 11.423C18.4392 11.6107 20.193 13.9339 21.7898 16.8618C25.3129 15.5429 26.6428 13.5213 26.6658 13.4872ZM22.1503 21.9893C22.1295 21.9961 22.1087 22.0021 22.0883 22.0095C16.5793 23.9273 14.7803 27.7921 14.7608 27.8343C16.3459 29.0652 18.3341 29.8079 20.4995 29.8079C21.7925 29.8079 23.0242 29.545 24.1448 29.069C24.0065 28.2544 23.4641 25.399 22.1503 21.9893ZM25.7171 28.2171C27.8136 26.8043 29.3026 24.561 29.718 21.9626C29.5258 21.9007 26.9135 21.0749 23.8997 21.5574C25.1244 24.9182 25.622 27.6552 25.7171 28.2171ZM22.5085 18.2511C22.7252 18.6957 22.9351 19.1482 23.1289 19.603C23.1978 19.7662 23.265 19.9261 23.3307 20.086C26.5382 19.683 29.6983 20.3611 29.8334 20.3888C29.812 18.1785 29.0202 16.15 27.7101 14.5619C27.6925 14.5869 26.195 16.7477 22.5085 18.2511Z" fill="#263238"/>
</svg>
